<svg width="22" height="22" viewBox="0 0 22 22" fill="none" xmlns="http://www.w3.org/2000/svg">
<path d="M1.83337 8.25001C1.83337 6.68629 1.83337 5.90443 2.24667 5.36582C2.35307 5.22716 2.47719 5.10304 2.61585 4.99664C3.15447 4.58334 3.93632 4.58334 5.50004 4.58334H16.5C18.0638 4.58334 18.8456 4.58334 19.3842 4.99664C19.5229 5.10304 19.647 5.22716 19.7534 5.36582C20.1667 5.90443 20.1667 6.68629 20.1667 8.25001C20.1667 8.64094 20.1667 8.8364 20.0634 8.97106C20.0368 9.00572 20.0058 9.03675 19.9711 9.06335C19.8364 9.16668 19.641 9.16668 19.25 9.16668H2.75004C2.35911 9.16668 2.16365 9.16668 2.02899 9.06335C1.99433 9.03675 1.9633 9.00572 1.9367 8.97106C1.83337 8.8364 1.83337 8.64094 1.83337 8.25001Z" fill="white"/>
<path fill-rule="evenodd" clip-rule="evenodd" d="M1.83337 16.1667C1.83337 18.0523 1.83337 18.9951 2.41916 19.5809C3.00495 20.1667 3.94776 20.1667 5.83337 20.1667H16.1667C18.0523 20.1667 18.9951 20.1667 19.5809 19.5809C20.1667 18.9951 20.1667 18.0523 20.1667 16.1667V12C20.1667 11.5286 20.1667 11.2929 20.0203 11.1464C19.8738 11 19.6381 11 19.1667 11H2.83338C2.36197 11 2.12627 11 1.97982 11.1464C1.83337 11.2929 1.83337 11.5286 1.83337 12V16.1667ZM6.41671 13.75C6.41671 13.3591 6.41671 13.1636 6.52003 13.029C6.54663 12.9943 6.57766 12.9633 6.61233 12.9367C6.74698 12.8333 6.94244 12.8333 7.33337 12.8333H9.16671C9.55764 12.8333 9.7531 12.8333 9.88775 12.9367C9.92242 12.9633 9.95345 12.9943 9.98005 13.029C10.0834 13.1636 10.0834 13.3591 10.0834 13.75C10.0834 14.1409 10.0834 14.3364 9.98005 14.471C9.95345 14.5057 9.92242 14.5367 9.88775 14.5633C9.7531 14.6667 9.55764 14.6667 9.16671 14.6667H7.33337C6.94244 14.6667 6.74698 14.6667 6.61233 14.5633C6.57766 14.5367 6.54663 14.5057 6.52003 14.471C6.41671 14.3364 6.41671 14.1409 6.41671 13.75ZM6.52003 16.6956C6.41671 16.8303 6.41671 17.0257 6.41671 17.4167C6.41671 17.8076 6.41671 18.0031 6.52003 18.1377C6.54663 18.1724 6.57766 18.2034 6.61233 18.23C6.74698 18.3333 6.94244 18.3333 7.33337 18.3333H9.16671C9.55764 18.3333 9.7531 18.3333 9.88775 18.23C9.92242 18.2034 9.95345 18.1724 9.98005 18.1377C10.0834 18.0031 10.0834 17.8076 10.0834 17.4167C10.0834 17.0257 10.0834 16.8303 9.98005 16.6956C9.95345 16.661 9.92242 16.6299 9.88775 16.6033C9.7531 16.5 9.55764 16.5 9.16671 16.5H7.33337C6.94244 16.5 6.74698 16.5 6.61233 16.6033C6.57766 16.6299 6.54663 16.661 6.52003 16.6956ZM11.9167 13.75C11.9167 13.3591 11.9167 13.1636 12.02 13.029C12.0466 12.9943 12.0777 12.9633 12.1123 12.9367C12.247 12.8333 12.4424 12.8333 12.8334 12.8333H14.6667C15.0576 12.8333 15.2531 12.8333 15.3878 12.9367C15.4224 12.9633 15.4535 12.9943 15.4801 13.029C15.5834 13.1636 15.5834 13.3591 15.5834 13.75C15.5834 14.1409 15.5834 14.3364 15.4801 14.471C15.4535 14.5057 15.4224 14.5367 15.3878 14.5633C15.2531 14.6667 15.0576 14.6667 14.6667 14.6667H12.8334C12.4424 14.6667 12.247 14.6667 12.1123 14.5633C12.0777 14.5367 12.0466 14.5057 12.02 14.471C11.9167 14.3364 11.9167 14.1409 11.9167 13.75ZM12.02 16.6956C11.9167 16.8303 11.9167 17.0257 11.9167 17.4167C11.9167 17.8076 11.9167 18.0031 12.02 18.1377C12.0466 18.1724 12.0777 18.2034 12.1123 18.23C12.247 18.3333 12.4424 18.3333 12.8334 18.3333H14.6667C15.0576 18.3333 15.2531 18.3333 15.3878 18.23C15.4224 18.2034 15.4535 18.1724 15.4801 18.1377C15.5834 18.0031 15.5834 17.8076 15.5834 17.4167C15.5834 17.0257 15.5834 16.8303 15.4801 16.6956C15.4535 16.661 15.4224 16.6299 15.3878 16.6033C15.2531 16.5 15.0576 16.5 14.6667 16.5H12.8334C12.4424 16.5 12.247 16.5 12.1123 16.6033C12.0777 16.6299 12.0466 16.661 12.02 16.6956Z" fill="white"/>
<path d="M6.41663 2.75L6.41663 5.5" stroke="white" stroke-width="2" stroke-linecap="round"/>
<path d="M15.5834 2.75L15.5834 5.5" stroke="white" stroke-width="2" stroke-linecap="round"/>
</svg>
