<svg width="35" height="35" viewBox="0 0 35 35" fill="none" xmlns="http://www.w3.org/2000/svg">
<path d="M8.69856 4.57377C7.70948 4.83879 6.8076 5.35949 6.08354 6.08354C5.35949 6.8076 4.83879 7.70948 4.57377 8.69856" stroke="white" stroke-width="2" stroke-linecap="round"/>
<path d="M26.3014 4.57377C27.2905 4.83879 28.1924 5.35949 28.9165 6.08354C29.6405 6.8076 30.1612 7.70948 30.4262 8.69856" stroke="white" stroke-width="2" stroke-linecap="round"/>
<path fill-rule="evenodd" clip-rule="evenodd" d="M17.5 29.1666C23.9434 29.1666 29.1667 23.9433 29.1667 17.5C29.1667 11.0567 23.9434 5.83331 17.5 5.83331C11.0567 5.83331 5.83337 11.0567 5.83337 17.5C5.83337 23.9433 11.0567 29.1666 17.5 29.1666ZM18.5 11.6666C18.5 11.1144 18.0523 10.6666 17.5 10.6666C16.9478 10.6666 16.5 11.1144 16.5 11.6666V17.25C16.5 17.9403 17.0597 18.5 17.75 18.5H21.875C22.4273 18.5 22.875 18.0523 22.875 17.5C22.875 16.9477 22.4273 16.5 21.875 16.5H18.5V11.6666Z" fill="white"/>
</svg>
