<svg width="22" height="22" viewBox="0 0 22 22" fill="none" xmlns="http://www.w3.org/2000/svg">
<path fill-rule="evenodd" clip-rule="evenodd" d="M11 0.6875C5.17577 0.6875 0.458374 5.4049 0.458374 11.2292C0.458374 15.8939 3.47593 19.8338 7.66624 21.2306C8.19332 21.3228 8.39098 21.0066 8.39098 20.7298C8.39098 20.4795 8.3778 19.6493 8.3778 18.7665C5.72921 19.254 5.044 18.1208 4.83317 17.5278C4.71457 17.2247 4.20067 16.2892 3.75264 16.0388C3.38369 15.8411 2.8566 15.3536 3.73947 15.3404C4.56962 15.3272 5.16259 16.1047 5.36025 16.4209C6.309 18.0154 7.82436 17.5673 8.43051 17.2906C8.52275 16.6054 8.79947 16.1442 9.10254 15.8807C6.75702 15.6171 4.30608 14.7079 4.30608 10.6757C4.30608 9.52932 4.71457 8.58057 5.3866 7.84266C5.28119 7.57911 4.91223 6.49859 5.49202 5.04911C5.49202 5.04911 6.37488 4.7724 8.39098 6.12964C9.23431 5.89245 10.1304 5.77385 11.0264 5.77385C11.9224 5.77385 12.8185 5.89245 13.6618 6.12964C15.6779 4.75922 16.5608 5.04911 16.5608 5.04911C17.1406 6.49859 16.7716 7.57911 16.6662 7.84266C17.3382 8.58057 17.7467 9.51614 17.7467 10.6757C17.7467 14.7211 15.2826 15.6171 12.9371 15.8807C13.3192 16.2101 13.6486 16.8426 13.6486 17.8309C13.6486 19.2408 13.6355 20.3741 13.6355 20.7298C13.6355 21.0066 13.8331 21.336 14.3602 21.2306C18.5242 19.8338 21.5417 15.8807 21.5417 11.2292C21.5417 5.4049 16.8243 0.6875 11 0.6875Z" fill="black" fill-opacity="0.73"/>
</svg>
